<?xml version="1.0" encoding="UTF-8"?>

<!DOCTYPE svg PUBLIC '-//W3C//DTD SVG 1.0//EN' 'http://www.w3.org/TR/2001/REC-SVG-20010904/DTD/svg10.dtd'>
<svg fill-opacity="1" xmlns:xlink="http://www.w3.org/1999/xlink" color-rendering="auto" color-interpolation="auto" text-rendering="auto" stroke="black" stroke-linecap="square" width="1234" stroke-miterlimit="10" shape-rendering="auto" stroke-opacity="1" fill="black" stroke-dasharray="none" font-weight="normal" stroke-width="1" height="395" xmlns="http://www.w3.org/2000/svg" font-family="&apos;Dialog&apos;" font-style="normal" stroke-linejoin="miter" font-size="12" stroke-dashoffset="0" image-rendering="auto">
  <!--Generated by the Batik Graphics2D SVG Generator-->
  <defs id="genericDefs" />
  <g>
    <defs id="defs1">
      <clipPath clipPathUnits="userSpaceOnUse" id="clipPath1">
        <path d="M0 12.5 L0 378.5 C0 385.4036 5.5964 391 12.5 391 L1217.0573 391 C1223.9608 391 1229.5573 385.4036 1229.5573 378.5 L1229.5573 12.5 C1229.5573 5.5964 1223.9608 0 1217.0573 0 L12.5 0 C5.5964 0 0 5.5964 0 12.5 Z" />
      </clipPath>
      <clipPath clipPathUnits="userSpaceOnUse" id="clipPath2">
        <path d="M6 2 L196.4427 2 L196.4427 18 L6 18 L6 2 Z" />
      </clipPath>
      <clipPath clipPathUnits="userSpaceOnUse" id="clipPath3">
        <path d="M-0 0 L190 0 L190 16 L-0 16 L-0 0 Z" />
      </clipPath>
      <clipPath clipPathUnits="userSpaceOnUse" id="clipPath4">
        <path d="M20 0 L1205.5573 0 L1185.5573 341 L0 341 Z" />
      </clipPath>
      <clipPath clipPathUnits="userSpaceOnUse" id="clipPath5">
        <path d="M6 2 L47.4974 2 L47.4974 18 L6 18 L6 2 Z" />
      </clipPath>
      <clipPath clipPathUnits="userSpaceOnUse" id="clipPath6">
        <path d="M-0 0 L41 0 L41 16 L-0 16 L-0 0 Z" />
      </clipPath>
      <clipPath clipPathUnits="userSpaceOnUse" id="clipPath7">
        <path d="M20 0 L443.0039 0 L423.0039 200 L0 200 Z" />
      </clipPath>
      <clipPath clipPathUnits="userSpaceOnUse" id="clipPath8">
        <path d="M6 2 L83.8125 2 L83.8125 18 L6 18 L6 2 Z" />
      </clipPath>
      <clipPath clipPathUnits="userSpaceOnUse" id="clipPath9">
        <path d="M0 0 L77 0 L77 16 L0 16 L0 0 Z" />
      </clipPath>
      <clipPath clipPathUnits="userSpaceOnUse" id="clipPath10">
        <path d="M0 0 L20 8 L0 16 Z" />
      </clipPath>
      <clipPath clipPathUnits="userSpaceOnUse" id="clipPath11">
        <path d="M6 2 L54.1771 2 L54.1771 18 L6 18 L6 2 Z" />
      </clipPath>
      <clipPath clipPathUnits="userSpaceOnUse" id="clipPath12">
        <path d="M0 0 L48 0 L48 16 L0 16 L0 0 Z" />
      </clipPath>
      <clipPath clipPathUnits="userSpaceOnUse" id="clipPath13">
        <path d="M6 2 L46.7617 2 L46.7617 18 L6 18 L6 2 Z" />
      </clipPath>
      <clipPath clipPathUnits="userSpaceOnUse" id="clipPath14">
        <path d="M0 0 L40 0 L40 16 L0 16 L0 0 Z" />
      </clipPath>
      <clipPath clipPathUnits="userSpaceOnUse" id="clipPath15">
        <path d="M6 2 L81.5794 2 L81.5794 18 L6 18 L6 2 Z" />
      </clipPath>
      <clipPath clipPathUnits="userSpaceOnUse" id="clipPath16">
        <path d="M0 0 L75 0 L75 16 L0 16 L0 0 Z" />
      </clipPath>
      <clipPath clipPathUnits="userSpaceOnUse" id="clipPath17">
        <path d="M20 0 L0 8 L20 16 Z" />
      </clipPath>
      <clipPath clipPathUnits="userSpaceOnUse" id="clipPath18">
        <path d="M6 2 L52.6862 2 L52.6862 18 L6 18 L6 2 Z" />
      </clipPath>
      <clipPath clipPathUnits="userSpaceOnUse" id="clipPath19">
        <path d="M-0.0001 0 L45.9999 0 L45.9999 16 L-0.0001 16 L-0.0001 0 Z" />
      </clipPath>
      <clipPath clipPathUnits="userSpaceOnUse" id="clipPath20">
        <path d="M20 0 L364.3177 0 L344.3177 150 L0 150 Z" />
      </clipPath>
      <clipPath clipPathUnits="userSpaceOnUse" id="clipPath21">
        <path d="M6 2 L112.7318 2 L112.7318 18 L6 18 L6 2 Z" />
      </clipPath>
      <clipPath clipPathUnits="userSpaceOnUse" id="clipPath22">
        <path d="M0 0 L106 0 L106 16 L0 16 L0 0 Z" />
      </clipPath>
      <clipPath clipPathUnits="userSpaceOnUse" id="clipPath23">
        <path d="M20 0 L321.5065 0 L301.5065 90 L0 90 Z" />
      </clipPath>
      <clipPath clipPathUnits="userSpaceOnUse" id="clipPath24">
        <path d="M6 2 L29.724 2 L29.724 18 L6 18 L6 2 Z" />
      </clipPath>
      <clipPath clipPathUnits="userSpaceOnUse" id="clipPath25">
        <path d="M-0 0 L23 0 L23 16 L-0 16 L-0 0 Z" />
      </clipPath>
      <clipPath clipPathUnits="userSpaceOnUse" id="clipPath26">
        <path d="M0 0 L46 0 L46 16 L0 16 L0 0 Z" />
      </clipPath>
      <clipPath clipPathUnits="userSpaceOnUse" id="clipPath27">
        <path d="M20 0 L304.2357 0 L284.2357 90 L0 90 Z" />
      </clipPath>
      <clipPath clipPathUnits="userSpaceOnUse" id="clipPath28">
        <path d="M6 2 L83.0768 2 L83.0768 18 L6 18 L6 2 Z" />
      </clipPath>
      <clipPath clipPathUnits="userSpaceOnUse" id="clipPath29">
        <path d="M8 8 L0 4 L8 0 Z" />
      </clipPath>
      <clipPath clipPathUnits="userSpaceOnUse" id="clipPath30">
        <path d="M0 8 L8 4 L0 0 Z" />
      </clipPath>
    </defs>
    <g transform="matrix(1,0,0,1,2,2)" fill="white" text-rendering="geometricPrecision" color-rendering="optimizeQuality" image-rendering="optimizeQuality" stroke="white" color-interpolation="linearRGB">
      <rect x="0" y="0" clip-path="url(#clipPath1)" width="1229.5573" rx="12.5" ry="12.5" height="391" stroke="none" />
    </g>
    <g stroke-linecap="butt" transform="matrix(1,0,0,1,2,2)" text-rendering="geometricPrecision" color-rendering="optimizeQuality" image-rendering="optimizeQuality" color-interpolation="linearRGB" stroke-width="4">
      <rect x="0" y="0" clip-path="url(#clipPath1)" fill="none" width="1229.5573" rx="12.5" ry="12.5" height="391" />
    </g>
    <g transform="matrix(1,0,0,1,515.5573,5)" fill-opacity="0.8" fill="rgb(255,255,255)" text-rendering="geometricPrecision" image-rendering="optimizeQuality" color-rendering="optimizeQuality" stroke="rgb(255,255,255)" color-interpolation="linearRGB" stroke-opacity="0.8">
      <rect x="6" y="2" clip-path="url(#clipPath2)" width="190.4427" height="16" stroke="none" />
    </g>
    <g font-size="13.3333" transform="matrix(1,0,0,1,521.5573,20) translate(0,-13)" fill-opacity="0" fill="rgb(0,0,0)" text-rendering="geometricPrecision" image-rendering="optimizeQuality" color-rendering="optimizeQuality" font-family="&apos;Arial&apos;" stroke="rgb(0,0,0)" color-interpolation="linearRGB" stroke-opacity="0">
      <rect x="0" y="0" clip-path="url(#clipPath3)" width="190" height="16" stroke="none" />
    </g>
    <g font-size="13.3333" transform="matrix(1,0,0,1,521.5573,20) translate(0,-13)" text-rendering="optimizeLegibility" image-rendering="optimizeQuality" color-rendering="optimizeQuality" font-family="&apos;Arial&apos;" color-interpolation="linearRGB">
      <text xml:space="preserve" x="0" y="13" clip-path="url(#clipPath3)" stroke="none">TempControlSoftwareSystem.p*</text>
    </g>
    <g transform="matrix(1,0,0,1,14,40)" fill="white" text-rendering="geometricPrecision" color-rendering="optimizeQuality" image-rendering="optimizeQuality" stroke="white" color-interpolation="linearRGB">
      <path d="M20 0 L1205.5573 0 L1185.5573 341 L0 341 Z" clip-path="url(#clipPath4)" stroke="none" />
    </g>
    <g stroke-linecap="butt" transform="matrix(1,0,0,1,14,40)" text-rendering="geometricPrecision" color-rendering="optimizeQuality" image-rendering="optimizeQuality" color-interpolation="linearRGB" stroke-width="4">
      <path fill="none" d="M20 0 L1205.5573 0 L1185.5573 341 L0 341 Z" clip-path="url(#clipPath4)" />
    </g>
    <g transform="matrix(1,0,0,1,590.0299,43)" fill-opacity="0.8" fill="rgb(255,255,255)" text-rendering="geometricPrecision" image-rendering="optimizeQuality" color-rendering="optimizeQuality" stroke="rgb(255,255,255)" color-interpolation="linearRGB" stroke-opacity="0.8">
      <rect x="6" y="2" clip-path="url(#clipPath5)" width="41.4974" height="16" stroke="none" />
    </g>
    <g font-size="13.3333" transform="matrix(1,0,0,1,596.0299,58) translate(0,-13)" fill-opacity="0" fill="rgb(0,0,0)" text-rendering="geometricPrecision" image-rendering="optimizeQuality" color-rendering="optimizeQuality" font-family="&apos;Arial&apos;" stroke="rgb(0,0,0)" color-interpolation="linearRGB" stroke-opacity="0">
      <rect x="0" y="0" clip-path="url(#clipPath6)" width="41" height="16" stroke="none" />
    </g>
    <g font-size="13.3333" transform="matrix(1,0,0,1,596.0299,58) translate(0,-13)" text-rendering="optimizeLegibility" image-rendering="optimizeQuality" color-rendering="optimizeQuality" font-family="&apos;Arial&apos;" color-interpolation="linearRGB">
      <text xml:space="preserve" x="0" y="13" clip-path="url(#clipPath6)" stroke="none">tcproc*</text>
    </g>
    <g transform="matrix(1,0,0,1,754.5533,159)" fill="white" text-rendering="geometricPrecision" color-rendering="optimizeQuality" image-rendering="optimizeQuality" stroke="white" color-interpolation="linearRGB">
      <path d="M20 0 L443.0039 0 L423.0039 200 L0 200 Z" clip-path="url(#clipPath7)" stroke="none" />
    </g>
    <g stroke-linecap="butt" transform="matrix(1,0,0,1,754.5533,159)" fill="rgb(96,96,96)" text-rendering="geometricPrecision" image-rendering="optimizeQuality" color-rendering="optimizeQuality" stroke-dasharray="6,2" stroke="rgb(96,96,96)" color-interpolation="linearRGB" stroke-width="4">
      <path fill="none" d="M20 0 L443.0039 0 L423.0039 200 L0 200 Z" clip-path="url(#clipPath7)" />
    </g>
    <g transform="matrix(1,0,0,1,931.149,162)" fill-opacity="0.8" fill="rgb(255,255,255)" text-rendering="geometricPrecision" image-rendering="optimizeQuality" color-rendering="optimizeQuality" stroke="rgb(255,255,255)" color-interpolation="linearRGB" stroke-opacity="0.8">
      <rect x="6" y="2" clip-path="url(#clipPath8)" width="77.8125" height="16" stroke="none" />
    </g>
    <g font-size="13.3333" transform="matrix(1,0,0,1,937.149,177) translate(0,-13)" fill-opacity="0" fill="rgb(0,0,0)" text-rendering="geometricPrecision" image-rendering="optimizeQuality" color-rendering="optimizeQuality" font-family="&apos;Arial&apos;" stroke="rgb(0,0,0)" color-interpolation="linearRGB" stroke-opacity="0">
      <rect x="0" y="0" clip-path="url(#clipPath9)" width="77" height="16" stroke="none" />
    </g>
    <g font-size="13.3333" transform="matrix(1,0,0,1,937.149,177) translate(0,-13)" fill="rgb(96,96,96)" text-rendering="optimizeLegibility" image-rendering="optimizeQuality" color-rendering="optimizeQuality" font-family="&apos;Arial&apos;" stroke="rgb(96,96,96)" color-interpolation="linearRGB">
      <text xml:space="preserve" x="0" y="13" clip-path="url(#clipPath9)" stroke="none">tempControl*</text>
    </g>
    <g text-rendering="geometricPrecision" transform="matrix(1,0,0,1,754.5533,271)" color-interpolation="linearRGB" color-rendering="optimizeQuality" image-rendering="optimizeQuality">
      <path d="M0 0 L20 8 L0 16 Z" clip-path="url(#clipPath10)" stroke="none" />
    </g>
    <g stroke-linecap="butt" transform="matrix(1,0,0,1,754.5533,271)" fill="rgb(96,96,96)" text-rendering="geometricPrecision" image-rendering="optimizeQuality" color-rendering="optimizeQuality" stroke="rgb(96,96,96)" color-interpolation="linearRGB" stroke-width="2">
      <path fill="none" d="M0 0 L20 8 L0 16 Z" clip-path="url(#clipPath10)" />
    </g>
    <g transform="matrix(1,0,0,1,754.5533,247)" fill-opacity="0.8" fill="rgb(255,255,255)" text-rendering="geometricPrecision" image-rendering="optimizeQuality" color-rendering="optimizeQuality" stroke="rgb(255,255,255)" color-interpolation="linearRGB" stroke-opacity="0.8">
      <rect x="6" y="2" clip-path="url(#clipPath11)" width="48.1771" height="16" stroke="none" />
    </g>
    <g font-size="13.3333" transform="matrix(1,0,0,1,760.5533,262) translate(0,-13)" fill-opacity="0" fill="rgb(0,0,0)" text-rendering="geometricPrecision" image-rendering="optimizeQuality" color-rendering="optimizeQuality" font-family="&apos;Arial&apos;" stroke="rgb(0,0,0)" color-interpolation="linearRGB" stroke-opacity="0">
      <rect x="0" y="0" clip-path="url(#clipPath12)" width="48" height="16" stroke="none" />
    </g>
    <g font-size="13.3333" transform="matrix(1,0,0,1,760.5533,262) translate(0,-13)" fill="rgb(96,96,96)" text-rendering="optimizeLegibility" image-rendering="optimizeQuality" color-rendering="optimizeQuality" font-family="&apos;Arial&apos;" stroke="rgb(96,96,96)" color-interpolation="linearRGB">
      <text xml:space="preserve" x="0" y="13" clip-path="url(#clipPath12)" stroke="none">setPoint</text>
    </g>
    <g text-rendering="geometricPrecision" transform="matrix(1,0,0,1,754.5533,331)" color-interpolation="linearRGB" color-rendering="optimizeQuality" image-rendering="optimizeQuality">
      <path d="M0 0 L20 8 L0 16 Z" clip-path="url(#clipPath10)" stroke="none" />
    </g>
    <g stroke-linecap="butt" transform="matrix(1,0,0,1,754.5533,331)" fill="rgb(96,96,96)" text-rendering="geometricPrecision" image-rendering="optimizeQuality" color-rendering="optimizeQuality" stroke="rgb(96,96,96)" color-interpolation="linearRGB" stroke-width="2">
      <path fill="none" d="M0 0 L20 8 L0 16 Z" clip-path="url(#clipPath10)" />
    </g>
    <g transform="matrix(1,0,0,1,754.5533,307)" fill-opacity="0.8" fill="rgb(255,255,255)" text-rendering="geometricPrecision" image-rendering="optimizeQuality" color-rendering="optimizeQuality" stroke="rgb(255,255,255)" color-interpolation="linearRGB" stroke-opacity="0.8">
      <rect x="6" y="2" clip-path="url(#clipPath13)" width="40.7617" height="16" stroke="none" />
    </g>
    <g font-size="13.3333" transform="matrix(1,0,0,1,760.5533,322) translate(0,-13)" fill-opacity="0" fill="rgb(0,0,0)" text-rendering="geometricPrecision" image-rendering="optimizeQuality" color-rendering="optimizeQuality" font-family="&apos;Arial&apos;" stroke="rgb(0,0,0)" color-interpolation="linearRGB" stroke-opacity="0">
      <rect x="0" y="0" clip-path="url(#clipPath14)" width="40" height="16" stroke="none" />
    </g>
    <g font-size="13.3333" transform="matrix(1,0,0,1,760.5533,322) translate(0,-13)" fill="rgb(96,96,96)" text-rendering="optimizeLegibility" image-rendering="optimizeQuality" color-rendering="optimizeQuality" font-family="&apos;Arial&apos;" stroke="rgb(96,96,96)" color-interpolation="linearRGB">
      <text xml:space="preserve" x="0" y="13" clip-path="url(#clipPath14)" stroke="none">fanAck</text>
    </g>
    <g text-rendering="geometricPrecision" transform="matrix(1,0,0,1,754.5533,221)" color-interpolation="linearRGB" color-rendering="optimizeQuality" image-rendering="optimizeQuality">
      <path d="M0 0 L20 8 L0 16 Z" clip-path="url(#clipPath10)" stroke="none" />
    </g>
    <g stroke-linecap="butt" transform="matrix(1,0,0,1,754.5533,221)" fill="rgb(96,96,96)" text-rendering="geometricPrecision" image-rendering="optimizeQuality" color-rendering="optimizeQuality" stroke="rgb(96,96,96)" color-interpolation="linearRGB" stroke-width="2">
      <path fill="none" d="M0 0 L20 8 L0 16 Z" clip-path="url(#clipPath10)" />
    </g>
    <g transform="matrix(1,0,0,1,754.5533,197)" fill-opacity="0.8" fill="rgb(255,255,255)" text-rendering="geometricPrecision" image-rendering="optimizeQuality" color-rendering="optimizeQuality" stroke="rgb(255,255,255)" color-interpolation="linearRGB" stroke-opacity="0.8">
      <rect x="6" y="2" clip-path="url(#clipPath15)" width="75.5794" height="16" stroke="none" />
    </g>
    <g font-size="13.3333" transform="matrix(1,0,0,1,760.5533,212) translate(0,-13)" fill-opacity="0" fill="rgb(0,0,0)" text-rendering="geometricPrecision" image-rendering="optimizeQuality" color-rendering="optimizeQuality" font-family="&apos;Arial&apos;" stroke="rgb(0,0,0)" color-interpolation="linearRGB" stroke-opacity="0">
      <rect x="0" y="0" clip-path="url(#clipPath16)" width="75" height="16" stroke="none" />
    </g>
    <g font-size="13.3333" transform="matrix(1,0,0,1,760.5533,212) translate(0,-13)" fill="rgb(96,96,96)" text-rendering="optimizeLegibility" image-rendering="optimizeQuality" color-rendering="optimizeQuality" font-family="&apos;Arial&apos;" stroke="rgb(96,96,96)" color-interpolation="linearRGB">
      <text xml:space="preserve" x="0" y="13" clip-path="url(#clipPath16)" stroke="none">currentTemp</text>
    </g>
    <g text-rendering="geometricPrecision" transform="matrix(-1,0,0,-1,1197.5572,237)" color-interpolation="linearRGB" color-rendering="optimizeQuality" image-rendering="optimizeQuality">
      <path d="M20 0 L0 8 L20 16 Z" clip-path="url(#clipPath17)" stroke="none" />
    </g>
    <g stroke-linecap="butt" transform="matrix(-1,0,0,-1,1197.5572,237)" fill="rgb(96,96,96)" text-rendering="geometricPrecision" image-rendering="optimizeQuality" color-rendering="optimizeQuality" stroke="rgb(96,96,96)" color-interpolation="linearRGB" stroke-width="2">
      <path fill="none" d="M20 0 L0 8 L20 16 Z" clip-path="url(#clipPath17)" />
    </g>
    <g transform="matrix(1,0,0,1,1138.871,197)" fill-opacity="0.8" fill="rgb(255,255,255)" text-rendering="geometricPrecision" image-rendering="optimizeQuality" color-rendering="optimizeQuality" stroke="rgb(255,255,255)" color-interpolation="linearRGB" stroke-opacity="0.8">
      <rect x="6" y="2" clip-path="url(#clipPath18)" width="46.6862" height="16" stroke="none" />
    </g>
    <g font-size="13.3333" transform="matrix(1,0,0,1,1144.871,212) translate(0,-13)" fill-opacity="0" fill="rgb(0,0,0)" text-rendering="geometricPrecision" image-rendering="optimizeQuality" color-rendering="optimizeQuality" font-family="&apos;Arial&apos;" stroke="rgb(0,0,0)" color-interpolation="linearRGB" stroke-opacity="0">
      <rect x="0" y="0" clip-path="url(#clipPath19)" width="46" height="16" stroke="none" />
    </g>
    <g font-size="13.3333" transform="matrix(1,0,0,1,1144.871,212) translate(0,-13)" fill="rgb(96,96,96)" text-rendering="optimizeLegibility" image-rendering="optimizeQuality" color-rendering="optimizeQuality" font-family="&apos;Arial&apos;" stroke="rgb(96,96,96)" color-interpolation="linearRGB">
      <text xml:space="preserve" x="0" y="13" clip-path="url(#clipPath19)" stroke="none">fanCmd</text>
    </g>
    <g transform="matrix(1,0,0,1,360.2357,99)" fill="white" text-rendering="geometricPrecision" color-rendering="optimizeQuality" image-rendering="optimizeQuality" stroke="white" color-interpolation="linearRGB">
      <path d="M20 0 L364.3177 0 L344.3177 150 L0 150 Z" clip-path="url(#clipPath20)" stroke="none" />
    </g>
    <g stroke-linecap="butt" transform="matrix(1,0,0,1,360.2357,99)" fill="rgb(96,96,96)" text-rendering="geometricPrecision" image-rendering="optimizeQuality" color-rendering="optimizeQuality" stroke-dasharray="6,2" stroke="rgb(96,96,96)" color-interpolation="linearRGB" stroke-width="4">
      <path fill="none" d="M20 0 L364.3177 0 L344.3177 150 L0 150 Z" clip-path="url(#clipPath20)" />
    </g>
    <g transform="matrix(1,0,0,1,483.0286,102)" fill-opacity="0.8" fill="rgb(255,255,255)" text-rendering="geometricPrecision" image-rendering="optimizeQuality" color-rendering="optimizeQuality" stroke="rgb(255,255,255)" color-interpolation="linearRGB" stroke-opacity="0.8">
      <rect x="6" y="2" clip-path="url(#clipPath21)" width="106.7318" height="16" stroke="none" />
    </g>
    <g font-size="13.3333" transform="matrix(1,0,0,1,489.0286,117) translate(0,-13)" fill-opacity="0" fill="rgb(0,0,0)" text-rendering="geometricPrecision" image-rendering="optimizeQuality" color-rendering="optimizeQuality" font-family="&apos;Arial&apos;" stroke="rgb(0,0,0)" color-interpolation="linearRGB" stroke-opacity="0">
      <rect x="0" y="0" clip-path="url(#clipPath22)" width="106" height="16" stroke="none" />
    </g>
    <g font-size="13.3333" transform="matrix(1,0,0,1,489.0286,117) translate(0,-13)" fill="rgb(96,96,96)" text-rendering="optimizeLegibility" image-rendering="optimizeQuality" color-rendering="optimizeQuality" font-family="&apos;Arial&apos;" stroke="rgb(96,96,96)" color-interpolation="linearRGB">
      <text xml:space="preserve" x="0" y="13" clip-path="url(#clipPath22)" stroke="none">operatorInterface*</text>
    </g>
    <g text-rendering="geometricPrecision" transform="matrix(1,0,0,1,360.2357,221)" color-interpolation="linearRGB" color-rendering="optimizeQuality" image-rendering="optimizeQuality">
      <path d="M0 0 L20 8 L0 16 Z" clip-path="url(#clipPath10)" stroke="none" />
    </g>
    <g stroke-linecap="butt" transform="matrix(1,0,0,1,360.2357,221)" fill="rgb(96,96,96)" text-rendering="geometricPrecision" image-rendering="optimizeQuality" color-rendering="optimizeQuality" stroke="rgb(96,96,96)" color-interpolation="linearRGB" stroke-width="2">
      <path fill="none" d="M0 0 L20 8 L0 16 Z" clip-path="url(#clipPath10)" />
    </g>
    <g transform="matrix(1,0,0,1,360.2357,197)" fill-opacity="0.8" fill="rgb(255,255,255)" text-rendering="geometricPrecision" image-rendering="optimizeQuality" color-rendering="optimizeQuality" stroke="rgb(255,255,255)" color-interpolation="linearRGB" stroke-opacity="0.8">
      <rect x="6" y="2" clip-path="url(#clipPath15)" width="75.5794" height="16" stroke="none" />
    </g>
    <g font-size="13.3333" transform="matrix(1,0,0,1,366.2357,212) translate(0,-13)" fill-opacity="0" fill="rgb(0,0,0)" text-rendering="geometricPrecision" image-rendering="optimizeQuality" color-rendering="optimizeQuality" font-family="&apos;Arial&apos;" stroke="rgb(0,0,0)" color-interpolation="linearRGB" stroke-opacity="0">
      <rect x="0" y="0" clip-path="url(#clipPath16)" width="75" height="16" stroke="none" />
    </g>
    <g font-size="13.3333" transform="matrix(1,0,0,1,366.2357,212) translate(0,-13)" fill="rgb(96,96,96)" text-rendering="optimizeLegibility" image-rendering="optimizeQuality" color-rendering="optimizeQuality" font-family="&apos;Arial&apos;" stroke="rgb(96,96,96)" color-interpolation="linearRGB">
      <text xml:space="preserve" x="0" y="13" clip-path="url(#clipPath16)" stroke="none">currentTemp</text>
    </g>
    <g text-rendering="geometricPrecision" transform="matrix(1,0,0,1,360.2357,161)" color-interpolation="linearRGB" color-rendering="optimizeQuality" image-rendering="optimizeQuality">
      <path d="M20 0 L0 8 L20 16 Z" clip-path="url(#clipPath17)" stroke="none" />
    </g>
    <g stroke-linecap="butt" transform="matrix(1,0,0,1,360.2357,161)" fill="rgb(96,96,96)" text-rendering="geometricPrecision" image-rendering="optimizeQuality" color-rendering="optimizeQuality" stroke="rgb(96,96,96)" color-interpolation="linearRGB" stroke-width="2">
      <path fill="none" d="M20 0 L0 8 L20 16 Z" clip-path="url(#clipPath17)" />
    </g>
    <g transform="matrix(1,0,0,1,360.2357,137)" fill-opacity="0.8" fill="rgb(255,255,255)" text-rendering="geometricPrecision" image-rendering="optimizeQuality" color-rendering="optimizeQuality" stroke="rgb(255,255,255)" color-interpolation="linearRGB" stroke-opacity="0.8">
      <rect x="6" y="2" clip-path="url(#clipPath11)" width="48.1771" height="16" stroke="none" />
    </g>
    <g font-size="13.3333" transform="matrix(1,0,0,1,366.2357,152) translate(0,-13)" fill-opacity="0" fill="rgb(0,0,0)" text-rendering="geometricPrecision" image-rendering="optimizeQuality" color-rendering="optimizeQuality" font-family="&apos;Arial&apos;" stroke="rgb(0,0,0)" color-interpolation="linearRGB" stroke-opacity="0">
      <rect x="0" y="0" clip-path="url(#clipPath12)" width="48" height="16" stroke="none" />
    </g>
    <g font-size="13.3333" transform="matrix(1,0,0,1,366.2357,152) translate(0,-13)" fill="rgb(96,96,96)" text-rendering="optimizeLegibility" image-rendering="optimizeQuality" color-rendering="optimizeQuality" font-family="&apos;Arial&apos;" stroke="rgb(96,96,96)" color-interpolation="linearRGB">
      <text xml:space="preserve" x="0" y="13" clip-path="url(#clipPath12)" stroke="none">setPoint</text>
    </g>
    <g transform="matrix(1,0,0,1,403.0468,269)" fill="white" text-rendering="geometricPrecision" color-rendering="optimizeQuality" image-rendering="optimizeQuality" stroke="white" color-interpolation="linearRGB">
      <path d="M20 0 L321.5065 0 L301.5065 90 L0 90 Z" clip-path="url(#clipPath23)" stroke="none" />
    </g>
    <g stroke-linecap="butt" transform="matrix(1,0,0,1,403.0468,269)" fill="rgb(96,96,96)" text-rendering="geometricPrecision" image-rendering="optimizeQuality" color-rendering="optimizeQuality" stroke-dasharray="6,2" stroke="rgb(96,96,96)" color-interpolation="linearRGB" stroke-width="4">
      <path fill="none" d="M20 0 L321.5065 0 L301.5065 90 L0 90 Z" clip-path="url(#clipPath23)" />
    </g>
    <g transform="matrix(1,0,0,1,545.9381,272)" fill-opacity="0.8" fill="rgb(255,255,255)" text-rendering="geometricPrecision" image-rendering="optimizeQuality" color-rendering="optimizeQuality" stroke="rgb(255,255,255)" color-interpolation="linearRGB" stroke-opacity="0.8">
      <rect x="6" y="2" clip-path="url(#clipPath24)" width="23.724" height="16" stroke="none" />
    </g>
    <g font-size="13.3333" transform="matrix(1,0,0,1,551.9381,287) translate(0,-13)" fill-opacity="0" fill="rgb(0,0,0)" text-rendering="geometricPrecision" image-rendering="optimizeQuality" color-rendering="optimizeQuality" font-family="&apos;Arial&apos;" stroke="rgb(0,0,0)" color-interpolation="linearRGB" stroke-opacity="0">
      <rect x="0" y="0" clip-path="url(#clipPath25)" width="23" height="16" stroke="none" />
    </g>
    <g font-size="13.3333" transform="matrix(1,0,0,1,551.9381,287) translate(0,-13)" fill="rgb(96,96,96)" text-rendering="optimizeLegibility" image-rendering="optimizeQuality" color-rendering="optimizeQuality" font-family="&apos;Arial&apos;" stroke="rgb(96,96,96)" color-interpolation="linearRGB">
      <text xml:space="preserve" x="0" y="13" clip-path="url(#clipPath25)" stroke="none">fan*</text>
    </g>
    <g text-rendering="geometricPrecision" transform="matrix(1,0,0,1,403.0468,331)" color-interpolation="linearRGB" color-rendering="optimizeQuality" image-rendering="optimizeQuality">
      <path d="M0 0 L20 8 L0 16 Z" clip-path="url(#clipPath10)" stroke="none" />
    </g>
    <g stroke-linecap="butt" transform="matrix(1,0,0,1,403.0468,331)" fill="rgb(96,96,96)" text-rendering="geometricPrecision" image-rendering="optimizeQuality" color-rendering="optimizeQuality" stroke="rgb(96,96,96)" color-interpolation="linearRGB" stroke-width="2">
      <path fill="none" d="M0 0 L20 8 L0 16 Z" clip-path="url(#clipPath10)" />
    </g>
    <g transform="matrix(1,0,0,1,403.0468,307)" fill-opacity="0.8" fill="rgb(255,255,255)" text-rendering="geometricPrecision" image-rendering="optimizeQuality" color-rendering="optimizeQuality" stroke="rgb(255,255,255)" color-interpolation="linearRGB" stroke-opacity="0.8">
      <rect x="6" y="2" clip-path="url(#clipPath18)" width="46.6862" height="16" stroke="none" />
    </g>
    <g font-size="13.3333" transform="matrix(1,0,0,1,409.0468,322) translate(0,-13)" fill-opacity="0" fill="rgb(0,0,0)" text-rendering="geometricPrecision" image-rendering="optimizeQuality" color-rendering="optimizeQuality" font-family="&apos;Arial&apos;" stroke="rgb(0,0,0)" color-interpolation="linearRGB" stroke-opacity="0">
      <rect x="0" y="0" clip-path="url(#clipPath26)" width="46" height="16" stroke="none" />
    </g>
    <g font-size="13.3333" transform="matrix(1,0,0,1,409.0468,322) translate(0,-13)" fill="rgb(96,96,96)" text-rendering="optimizeLegibility" image-rendering="optimizeQuality" color-rendering="optimizeQuality" font-family="&apos;Arial&apos;" stroke="rgb(96,96,96)" color-interpolation="linearRGB">
      <text xml:space="preserve" x="0" y="13" clip-path="url(#clipPath26)" stroke="none">fanCmd</text>
    </g>
    <g text-rendering="geometricPrecision" transform="matrix(-1,0,0,-1,724.5533,347)" color-interpolation="linearRGB" color-rendering="optimizeQuality" image-rendering="optimizeQuality">
      <path d="M20 0 L0 8 L20 16 Z" clip-path="url(#clipPath17)" stroke="none" />
    </g>
    <g stroke-linecap="butt" transform="matrix(-1,0,0,-1,724.5533,347)" fill="rgb(96,96,96)" text-rendering="geometricPrecision" image-rendering="optimizeQuality" color-rendering="optimizeQuality" stroke="rgb(96,96,96)" color-interpolation="linearRGB" stroke-width="2">
      <path fill="none" d="M20 0 L0 8 L20 16 Z" clip-path="url(#clipPath17)" />
    </g>
    <g transform="matrix(1,0,0,1,671.7916,307)" fill-opacity="0.8" fill="rgb(255,255,255)" text-rendering="geometricPrecision" image-rendering="optimizeQuality" color-rendering="optimizeQuality" stroke="rgb(255,255,255)" color-interpolation="linearRGB" stroke-opacity="0.8">
      <rect x="6" y="2" clip-path="url(#clipPath13)" width="40.7617" height="16" stroke="none" />
    </g>
    <g font-size="13.3333" transform="matrix(1,0,0,1,677.7916,322) translate(0,-13)" fill-opacity="0" fill="rgb(0,0,0)" text-rendering="geometricPrecision" image-rendering="optimizeQuality" color-rendering="optimizeQuality" font-family="&apos;Arial&apos;" stroke="rgb(0,0,0)" color-interpolation="linearRGB" stroke-opacity="0">
      <rect x="0" y="0" clip-path="url(#clipPath14)" width="40" height="16" stroke="none" />
    </g>
    <g font-size="13.3333" transform="matrix(1,0,0,1,677.7916,322) translate(0,-13)" fill="rgb(96,96,96)" text-rendering="optimizeLegibility" image-rendering="optimizeQuality" color-rendering="optimizeQuality" font-family="&apos;Arial&apos;" stroke="rgb(96,96,96)" color-interpolation="linearRGB">
      <text xml:space="preserve" x="0" y="13" clip-path="url(#clipPath14)" stroke="none">fanAck</text>
    </g>
    <g transform="matrix(1,0,0,1,26,159)" fill="white" text-rendering="geometricPrecision" color-rendering="optimizeQuality" image-rendering="optimizeQuality" stroke="white" color-interpolation="linearRGB">
      <path d="M20 0 L304.2357 0 L284.2357 90 L0 90 Z" clip-path="url(#clipPath27)" stroke="none" />
    </g>
    <g stroke-linecap="butt" transform="matrix(1,0,0,1,26,159)" fill="rgb(96,96,96)" text-rendering="geometricPrecision" image-rendering="optimizeQuality" color-rendering="optimizeQuality" stroke-dasharray="6,2" stroke="rgb(96,96,96)" color-interpolation="linearRGB" stroke-width="4">
      <path fill="none" d="M20 0 L304.2357 0 L284.2357 90 L0 90 Z" clip-path="url(#clipPath27)" />
    </g>
    <g transform="matrix(1,0,0,1,133.5794,162)" fill-opacity="0.8" fill="rgb(255,255,255)" text-rendering="geometricPrecision" image-rendering="optimizeQuality" color-rendering="optimizeQuality" stroke="rgb(255,255,255)" color-interpolation="linearRGB" stroke-opacity="0.8">
      <rect x="6" y="2" clip-path="url(#clipPath28)" width="77.0768" height="16" stroke="none" />
    </g>
    <g font-size="13.3333" transform="matrix(1,0,0,1,139.5794,177) translate(0,-13)" fill-opacity="0" fill="rgb(0,0,0)" text-rendering="geometricPrecision" image-rendering="optimizeQuality" color-rendering="optimizeQuality" font-family="&apos;Arial&apos;" stroke="rgb(0,0,0)" color-interpolation="linearRGB" stroke-opacity="0">
      <rect x="0" y="0" clip-path="url(#clipPath9)" width="77" height="16" stroke="none" />
    </g>
    <g font-size="13.3333" transform="matrix(1,0,0,1,139.5794,177) translate(0,-13)" fill="rgb(96,96,96)" text-rendering="optimizeLegibility" image-rendering="optimizeQuality" color-rendering="optimizeQuality" font-family="&apos;Arial&apos;" stroke="rgb(96,96,96)" color-interpolation="linearRGB">
      <text xml:space="preserve" x="0" y="13" clip-path="url(#clipPath9)" stroke="none">tempSensor*</text>
    </g>
    <g text-rendering="geometricPrecision" transform="matrix(-1,0,0,-1,330.2357,237)" color-interpolation="linearRGB" color-rendering="optimizeQuality" image-rendering="optimizeQuality">
      <path d="M20 0 L0 8 L20 16 Z" clip-path="url(#clipPath17)" stroke="none" />
    </g>
    <g stroke-linecap="butt" transform="matrix(-1,0,0,-1,330.2357,237)" fill="rgb(96,96,96)" text-rendering="geometricPrecision" image-rendering="optimizeQuality" color-rendering="optimizeQuality" stroke="rgb(96,96,96)" color-interpolation="linearRGB" stroke-width="2">
      <path fill="none" d="M20 0 L0 8 L20 16 Z" clip-path="url(#clipPath17)" />
    </g>
    <g transform="matrix(1,0,0,1,242.6562,197)" fill-opacity="0.8" fill="rgb(255,255,255)" text-rendering="geometricPrecision" image-rendering="optimizeQuality" color-rendering="optimizeQuality" stroke="rgb(255,255,255)" color-interpolation="linearRGB" stroke-opacity="0.8">
      <rect x="6" y="2" clip-path="url(#clipPath15)" width="75.5794" height="16" stroke="none" />
    </g>
    <g font-size="13.3333" transform="matrix(1,0,0,1,248.6562,212) translate(0,-13)" fill-opacity="0" fill="rgb(0,0,0)" text-rendering="geometricPrecision" image-rendering="optimizeQuality" color-rendering="optimizeQuality" font-family="&apos;Arial&apos;" stroke="rgb(0,0,0)" color-interpolation="linearRGB" stroke-opacity="0">
      <rect x="0" y="0" clip-path="url(#clipPath16)" width="75" height="16" stroke="none" />
    </g>
    <g font-size="13.3333" transform="matrix(1,0,0,1,248.6562,212) translate(0,-13)" fill="rgb(96,96,96)" text-rendering="optimizeLegibility" image-rendering="optimizeQuality" color-rendering="optimizeQuality" font-family="&apos;Arial&apos;" stroke="rgb(96,96,96)" color-interpolation="linearRGB">
      <text xml:space="preserve" x="0" y="13" clip-path="url(#clipPath16)" stroke="none">currentTemp</text>
    </g>
    <g stroke-linecap="butt" transform="matrix(1,0,0,1,328.7357,228.5)" fill="rgb(96,96,96)" text-rendering="geometricPrecision" color-rendering="optimizeQuality" image-rendering="optimizeQuality" stroke="rgb(96,96,96)" color-interpolation="linearRGB">
      <path fill="none" d="M0.5 0.5 L32.5 0.5" />
    </g>
    <g stroke-linecap="butt" transform="matrix(1,0,0,1,349.7357,228.5)" fill="rgb(96,96,96)" text-rendering="geometricPrecision" color-rendering="optimizeQuality" image-rendering="optimizeQuality" stroke="rgb(96,96,96)" color-interpolation="linearRGB">
      <path fill="none" d="M846.8216 0.5 L857.8216 0.5 L857.8216 140.5 L0.5 140.5 L0.5 110.5 L54.3112 110.5" />
    </g>
    <g stroke-linecap="butt" transform="matrix(1,0,0,1,771.5533,227)" fill="rgb(96,96,96)" text-rendering="geometricPrecision" image-rendering="optimizeQuality" color-rendering="optimizeQuality" stroke="rgb(96,96,96)" color-interpolation="linearRGB" stroke-width="4">
      <path fill="none" d="M2 52 L257.7383 52 L257.7383 2 L407.0039 2" />
    </g>
    <g transform="matrix(-1,0,0,-1,1178.5573,233)" fill="rgb(96,96,96)" text-rendering="geometricPrecision" color-rendering="optimizeQuality" image-rendering="optimizeQuality" stroke="rgb(96,96,96)" color-interpolation="linearRGB">
      <path d="M8 8 L0 4 L8 0 Z" clip-path="url(#clipPath29)" stroke="none" />
      <path fill="none" d="M8 8 L0 4 L8 0 Z" stroke-width="8" clip-path="url(#clipPath29)" stroke-linecap="butt" />
    </g>
    <g stroke-linecap="butt" transform="matrix(1,0,0,1,771.5533,227)" fill="rgb(96,96,96)" text-rendering="geometricPrecision" image-rendering="optimizeQuality" color-rendering="optimizeQuality" stroke="rgb(96,96,96)" color-interpolation="linearRGB" stroke-width="4">
      <path fill="none" d="M2 2 L407.0039 2" />
    </g>
    <g transform="matrix(-1,0,0,-1,1178.5573,233)" fill="rgb(96,96,96)" text-rendering="geometricPrecision" color-rendering="optimizeQuality" image-rendering="optimizeQuality" stroke="rgb(96,96,96)" color-interpolation="linearRGB">
      <path d="M8 8 L0 4 L8 0 Z" clip-path="url(#clipPath29)" stroke="none" />
      <path fill="none" d="M8 8 L0 4 L8 0 Z" stroke-width="8" clip-path="url(#clipPath29)" stroke-linecap="butt" />
    </g>
    <g stroke-linecap="butt" transform="matrix(1,0,0,1,773.0533,338.5)" fill="rgb(96,96,96)" text-rendering="geometricPrecision" color-rendering="optimizeQuality" image-rendering="optimizeQuality" stroke="rgb(96,96,96)" color-interpolation="linearRGB">
      <path fill="none" d="M0.5 0.5 L176.6028 0.5" />
    </g>
    <g transform="matrix(1,0,0,1,773.5533,335)" fill="rgb(96,96,96)" text-rendering="geometricPrecision" color-rendering="optimizeQuality" image-rendering="optimizeQuality" stroke="rgb(96,96,96)" color-interpolation="linearRGB">
      <path d="M0 8 L8 4 L0 0 Z" clip-path="url(#clipPath30)" stroke="none" />
      <path fill="none" d="M0 8 L8 4 L0 0 Z" stroke-width="2" clip-path="url(#clipPath30)" stroke-linecap="butt" />
    </g>
    <g stroke-linecap="butt" transform="matrix(-1,0,0,-1,948.6562,347)" fill="rgb(96,96,96)" text-rendering="geometricPrecision" color-rendering="optimizeQuality" image-rendering="optimizeQuality" stroke="rgb(96,96,96)" color-interpolation="linearRGB">
      <path fill="none" d="M0 16 L0 0" />
    </g>
    <g stroke-linecap="butt" transform="matrix(1,0,0,1,378.7357,168.5)" fill="rgb(96,96,96)" text-rendering="geometricPrecision" color-rendering="optimizeQuality" image-rendering="optimizeQuality" stroke="rgb(96,96,96)" color-interpolation="linearRGB">
      <path fill="none" d="M0.5 0.5 L191.4336 0.5" />
    </g>
    <g transform="matrix(1,0,0,1,379.2357,165)" fill="rgb(96,96,96)" text-rendering="geometricPrecision" color-rendering="optimizeQuality" image-rendering="optimizeQuality" stroke="rgb(96,96,96)" color-interpolation="linearRGB">
      <path d="M8 8 L0 4 L8 0 Z" clip-path="url(#clipPath29)" stroke="none" />
      <path fill="none" d="M8 8 L0 4 L8 0 Z" stroke-width="2" clip-path="url(#clipPath29)" stroke-linecap="butt" />
    </g>
    <g stroke-linecap="butt" transform="matrix(-1,0,0,-1,569.1693,177)" fill="rgb(96,96,96)" text-rendering="geometricPrecision" color-rendering="optimizeQuality" image-rendering="optimizeQuality" stroke="rgb(96,96,96)" color-interpolation="linearRGB">
      <path fill="none" d="M0 16 L0 0" />
    </g>
    <g stroke-linecap="butt" transform="matrix(1,0,0,1,378.7357,228.5)" fill="rgb(96,96,96)" text-rendering="geometricPrecision" color-rendering="optimizeQuality" image-rendering="optimizeQuality" stroke="rgb(96,96,96)" color-interpolation="linearRGB">
      <path fill="none" d="M0.5 0.5 L246.2383 0.5" />
    </g>
    <g transform="matrix(1,0,0,1,379.2357,225)" fill="rgb(96,96,96)" text-rendering="geometricPrecision" color-rendering="optimizeQuality" image-rendering="optimizeQuality" stroke="rgb(96,96,96)" color-interpolation="linearRGB">
      <path d="M0 8 L8 4 L0 0 Z" clip-path="url(#clipPath30)" stroke="none" />
      <path fill="none" d="M0 8 L8 4 L0 0 Z" stroke-width="2" clip-path="url(#clipPath30)" stroke-linecap="butt" />
    </g>
    <g stroke-linecap="butt" transform="matrix(-1,0,0,-1,623.9739,237)" fill="rgb(96,96,96)" text-rendering="geometricPrecision" color-rendering="optimizeQuality" image-rendering="optimizeQuality" stroke="rgb(96,96,96)" color-interpolation="linearRGB">
      <path fill="none" d="M0 16 L0 0" />
    </g>
    <g stroke-linecap="butt" transform="matrix(1,0,0,1,328.7357,77.5)" fill="rgb(96,96,96)" text-rendering="geometricPrecision" color-rendering="optimizeQuality" image-rendering="optimizeQuality" stroke="rgb(96,96,96)" color-interpolation="linearRGB">
      <path fill="none" d="M0.5 151.5 L11.5 151.5 L11.5 0.5 L415.8177 0.5 L415.8177 151.5 L426.8177 151.5" />
    </g>
    <g stroke-linecap="butt" transform="matrix(1,0,0,1,723.0533,338.5)" fill="rgb(96,96,96)" text-rendering="geometricPrecision" color-rendering="optimizeQuality" image-rendering="optimizeQuality" stroke="rgb(96,96,96)" color-interpolation="linearRGB">
      <path fill="none" d="M0.5 0.5 L32.5 0.5" />
    </g>
    <g stroke-linecap="butt" transform="matrix(1,0,0,1,349.7357,88.5)" fill="rgb(96,96,96)" text-rendering="geometricPrecision" color-rendering="optimizeQuality" image-rendering="optimizeQuality" stroke="rgb(96,96,96)" color-interpolation="linearRGB">
      <path fill="none" d="M11.5 80.5 L0.5 80.5 L0.5 0.5 L384.8177 0.5 L384.8177 190.5 L405.8177 190.5" />
    </g>
    <g stroke-linecap="butt" transform="matrix(1,0,0,1,420.0468,337)" fill="rgb(96,96,96)" text-rendering="geometricPrecision" image-rendering="optimizeQuality" color-rendering="optimizeQuality" stroke="rgb(96,96,96)" color-interpolation="linearRGB" stroke-width="4">
      <path fill="none" d="M2 2 L285.5065 2" />
    </g>
    <g transform="matrix(-1,0,0,-1,705.5533,343)" fill="rgb(96,96,96)" text-rendering="geometricPrecision" color-rendering="optimizeQuality" image-rendering="optimizeQuality" stroke="rgb(96,96,96)" color-interpolation="linearRGB">
      <path d="M8 8 L0 4 L8 0 Z" clip-path="url(#clipPath29)" stroke="none" />
      <path fill="none" d="M8 8 L0 4 L8 0 Z" stroke-width="8" clip-path="url(#clipPath29)" stroke-linecap="butt" />
    </g>
    <g stroke-linecap="butt" transform="matrix(1,0,0,1,421.5468,328.5)" fill="rgb(96,96,96)" text-rendering="geometricPrecision" color-rendering="optimizeQuality" image-rendering="optimizeQuality" stroke="rgb(96,96,96)" color-interpolation="linearRGB">
      <path fill="none" d="M0.5 10.5 L169.5586 10.5 L169.5586 0.5 L179.5586 0.5" />
    </g>
    <g transform="matrix(1,0,0,1,422.0468,335)" fill="rgb(96,96,96)" text-rendering="geometricPrecision" color-rendering="optimizeQuality" image-rendering="optimizeQuality" stroke="rgb(96,96,96)" color-interpolation="linearRGB">
      <path d="M0 8 L8 4 L0 0 Z" clip-path="url(#clipPath30)" stroke="none" />
      <path fill="none" d="M0 8 L8 4 L0 0 Z" stroke-width="2" clip-path="url(#clipPath30)" stroke-linecap="butt" />
    </g>
    <g stroke-linecap="butt" transform="matrix(-1,0,0,-1,600.1054,337)" fill="rgb(96,96,96)" text-rendering="geometricPrecision" color-rendering="optimizeQuality" image-rendering="optimizeQuality" stroke="rgb(96,96,96)" color-interpolation="linearRGB">
      <path fill="none" d="M0 16 L0 0" />
    </g>
    <g stroke-linecap="butt" transform="matrix(1,0,0,1,125.0794,228.5)" fill="rgb(96,96,96)" text-rendering="geometricPrecision" color-rendering="optimizeQuality" image-rendering="optimizeQuality" stroke="rgb(96,96,96)" color-interpolation="linearRGB">
      <path fill="none" d="M186.1562 0.5 L0.5 0.5" />
    </g>
    <g transform="matrix(-1,0,0,-1,311.2357,233)" fill="rgb(96,96,96)" text-rendering="geometricPrecision" color-rendering="optimizeQuality" image-rendering="optimizeQuality" stroke="rgb(96,96,96)" color-interpolation="linearRGB">
      <path d="M8 8 L0 4 L8 0 Z" clip-path="url(#clipPath29)" stroke="none" />
      <path fill="none" d="M8 8 L0 4 L8 0 Z" stroke-width="2" clip-path="url(#clipPath29)" stroke-linecap="butt" />
    </g>
    <g stroke-linecap="butt" transform="matrix(1,0,0,1,126.5794,221)" fill="rgb(96,96,96)" text-rendering="geometricPrecision" color-rendering="optimizeQuality" image-rendering="optimizeQuality" stroke="rgb(96,96,96)" color-interpolation="linearRGB">
      <path fill="none" d="M0 16 L0 0" />
    </g>
  </g>
</svg>
